<svg width="850" height="308" viewBox="0 0 850 308" fill="none" xmlns="http://www.w3.org/2000/svg">
<rect x="11.5" y="32" width="32" height="225" rx="16" fill="url(#paint0_linear_350_4224)"/>
<path d="M1.60156 302V300.125L7.48438 294.195C9.33594 292.25 10.2734 291.172 10.2734 289.695C10.2734 288.031 8.91406 286.953 7.13281 286.953C5.25781 286.953 4.03906 288.148 4.03906 289.953H1.60156C1.57812 286.859 3.94531 284.797 7.17969 284.797C10.4609 284.797 12.7109 286.859 12.7344 289.625C12.7109 291.523 11.8203 293.023 8.63281 296.164L5.1875 299.656V299.797H13.0156V302H1.60156ZM21.7812 302.234C17.8438 302.234 15.5469 299.07 15.5469 293.516C15.5469 288.008 17.8906 284.797 21.7812 284.797C25.6719 284.797 28.0156 288.008 28.0156 293.516C28.0156 299.07 25.6953 302.234 21.7812 302.234ZM21.7812 300.008C24.0781 300.008 25.4375 297.758 25.4375 293.516C25.4375 289.297 24.0547 286.977 21.7812 286.977C19.5078 286.977 18.125 289.297 18.125 293.516C18.125 297.758 19.4844 300.008 21.7812 300.008ZM37.1328 285.031V302H34.5312V287.609H34.4375L30.3828 290.258V287.797L34.6016 285.031H37.1328ZM47.2812 284.797C50.3984 284.82 53.6797 286.695 53.6797 292.906C53.6797 298.859 51.125 302.234 47.0469 302.234C43.9297 302.234 41.7266 300.312 41.3281 297.547H43.8828C44.2344 298.977 45.3359 299.984 47.0469 299.984C49.6719 299.984 51.1953 297.688 51.2188 293.82H51.0078C50.0938 295.25 48.5 296.117 46.6719 296.117C43.625 296.117 41.1875 293.797 41.1875 290.539C41.1875 287.305 43.6016 284.773 47.2812 284.797ZM47.2812 286.953C45.2188 286.953 43.6953 288.547 43.6953 290.492C43.6953 292.461 45.1719 294.008 47.2344 294.008C49.2734 294.008 50.8672 292.344 50.8672 290.469C50.8672 288.641 49.3672 286.953 47.2812 286.953Z" fill="#343434"/>
<rect x="143" y="32" width="32" height="225" rx="16" fill="url(#paint1_linear_350_4224)"/>
<path d="M131.414 302V300.125L137.297 294.195C139.148 292.25 140.086 291.172 140.086 289.695C140.086 288.031 138.727 286.953 136.945 286.953C135.07 286.953 133.852 288.148 133.852 289.953H131.414C131.391 286.859 133.758 284.797 136.992 284.797C140.273 284.797 142.523 286.859 142.547 289.625C142.523 291.523 141.633 293.023 138.445 296.164L135 299.656V299.797H142.828V302H131.414ZM151.594 302.234C147.656 302.234 145.359 299.07 145.359 293.516C145.359 288.008 147.703 284.797 151.594 284.797C155.484 284.797 157.828 288.008 157.828 293.516C157.828 299.07 155.508 302.234 151.594 302.234ZM151.594 300.008C153.891 300.008 155.25 297.758 155.25 293.516C155.25 289.297 153.867 286.977 151.594 286.977C149.32 286.977 147.938 289.297 147.938 293.516C147.938 297.758 149.297 300.008 151.594 300.008ZM160.5 302V300.125L166.383 294.195C168.234 292.25 169.172 291.172 169.172 289.695C169.172 288.031 167.812 286.953 166.031 286.953C164.156 286.953 162.938 288.148 162.938 289.953H160.5C160.477 286.859 162.844 284.797 166.078 284.797C169.359 284.797 171.609 286.859 171.633 289.625C171.609 291.523 170.719 293.023 167.531 296.164L164.086 299.656V299.797H171.914V302H160.5ZM180.68 302.234C176.742 302.234 174.445 299.07 174.445 293.516C174.445 288.008 176.789 284.797 180.68 284.797C184.57 284.797 186.914 288.008 186.914 293.516C186.914 299.07 184.594 302.234 180.68 302.234ZM180.68 300.008C182.977 300.008 184.336 297.758 184.336 293.516C184.336 289.297 182.953 286.977 180.68 286.977C178.406 286.977 177.023 289.297 177.023 293.516C177.023 297.758 178.383 300.008 180.68 300.008Z" fill="#343434"/>
<rect x="274.5" y="32" width="32" height="225" rx="16" fill="url(#paint2_linear_350_4224)"/>
<path d="M264.941 302V300.125L270.824 294.195C272.676 292.25 273.613 291.172 273.613 289.695C273.613 288.031 272.254 286.953 270.473 286.953C268.598 286.953 267.379 288.148 267.379 289.953H264.941C264.918 286.859 267.285 284.797 270.52 284.797C273.801 284.797 276.051 286.859 276.074 289.625C276.051 291.523 275.16 293.023 271.973 296.164L268.527 299.656V299.797H276.355V302H264.941ZM285.121 302.234C281.184 302.234 278.887 299.07 278.887 293.516C278.887 288.008 281.23 284.797 285.121 284.797C289.012 284.797 291.355 288.008 291.355 293.516C291.355 299.07 289.035 302.234 285.121 302.234ZM285.121 300.008C287.418 300.008 288.777 297.758 288.777 293.516C288.777 289.297 287.395 286.977 285.121 286.977C282.848 286.977 281.465 289.297 281.465 293.516C281.465 297.758 282.824 300.008 285.121 300.008ZM294.027 302V300.125L299.91 294.195C301.762 292.25 302.699 291.172 302.699 289.695C302.699 288.031 301.34 286.953 299.559 286.953C297.684 286.953 296.465 288.148 296.465 289.953H294.027C294.004 286.859 296.371 284.797 299.605 284.797C302.887 284.797 305.137 286.859 305.16 289.625C305.137 291.523 304.246 293.023 301.059 296.164L297.613 299.656V299.797H305.441V302H294.027ZM314.746 285.031V302H312.145V287.609H312.051L307.996 290.258V287.797L312.215 285.031H314.746Z" fill="#343434"/>
<rect x="405.5" y="11" width="32" height="250" rx="16" fill="url(#paint3_linear_350_4224)"/>
<path d="M394.184 302V300.125L400.066 294.195C401.918 292.25 402.855 291.172 402.855 289.695C402.855 288.031 401.496 286.953 399.715 286.953C397.84 286.953 396.621 288.148 396.621 289.953H394.184C394.16 286.859 396.527 284.797 399.762 284.797C403.043 284.797 405.293 286.859 405.316 289.625C405.293 291.523 404.402 293.023 401.215 296.164L397.77 299.656V299.797H405.598V302H394.184ZM414.363 302.234C410.426 302.234 408.129 299.07 408.129 293.516C408.129 288.008 410.473 284.797 414.363 284.797C418.254 284.797 420.598 288.008 420.598 293.516C420.598 299.07 418.277 302.234 414.363 302.234ZM414.363 300.008C416.66 300.008 418.02 297.758 418.02 293.516C418.02 289.297 416.637 286.977 414.363 286.977C412.09 286.977 410.707 289.297 410.707 293.516C410.707 297.758 412.066 300.008 414.363 300.008ZM423.27 302V300.125L429.152 294.195C431.004 292.25 431.941 291.172 431.941 289.695C431.941 288.031 430.582 286.953 428.801 286.953C426.926 286.953 425.707 288.148 425.707 289.953H423.27C423.246 286.859 425.613 284.797 428.848 284.797C432.129 284.797 434.379 286.859 434.402 289.625C434.379 291.523 433.488 293.023 430.301 296.164L426.855 299.656V299.797H434.684V302H423.27ZM437.543 302V300.125L443.426 294.195C445.277 292.25 446.215 291.172 446.215 289.695C446.215 288.031 444.855 286.953 443.074 286.953C441.199 286.953 439.98 288.148 439.98 289.953H437.543C437.52 286.859 439.887 284.797 443.121 284.797C446.402 284.797 448.652 286.859 448.676 289.625C448.652 291.523 447.762 293.023 444.574 296.164L441.129 299.656V299.797H448.957V302H437.543Z" fill="#FF7E36"/>
<rect x="538.5" y="39.75" width="32" height="221.25" rx="16" fill="url(#paint4_linear_350_4224)"/>
<path d="M526.5 302V300.125L532.383 294.195C534.234 292.25 535.172 291.172 535.172 289.695C535.172 288.031 533.812 286.953 532.031 286.953C530.156 286.953 528.938 288.148 528.938 289.953H526.5C526.477 286.859 528.844 284.797 532.078 284.797C535.359 284.797 537.609 286.859 537.633 289.625C537.609 291.523 536.719 293.023 533.531 296.164L530.086 299.656V299.797H537.914V302H526.5ZM546.68 302.234C542.742 302.234 540.445 299.07 540.445 293.516C540.445 288.008 542.789 284.797 546.68 284.797C550.57 284.797 552.914 288.008 552.914 293.516C552.914 299.07 550.594 302.234 546.68 302.234ZM546.68 300.008C548.977 300.008 550.336 297.758 550.336 293.516C550.336 289.297 548.953 286.977 546.68 286.977C544.406 286.977 543.023 289.297 543.023 293.516C543.023 297.758 544.383 300.008 546.68 300.008ZM555.586 302V300.125L561.469 294.195C563.32 292.25 564.258 291.172 564.258 289.695C564.258 288.031 562.898 286.953 561.117 286.953C559.242 286.953 558.023 288.148 558.023 289.953H555.586C555.562 286.859 557.93 284.797 561.164 284.797C564.445 284.797 566.695 286.859 566.719 289.625C566.695 291.523 565.805 293.023 562.617 296.164L559.172 299.656V299.797H567V302H555.586ZM575.883 302.234C572.367 302.234 569.859 300.336 569.766 297.57H572.391C572.484 299.07 573.961 300.008 575.859 300.008C577.898 300.008 579.398 298.883 579.398 297.242C579.398 295.578 577.992 294.359 575.578 294.359H574.125V292.25H575.578C577.5 292.25 578.859 291.172 578.859 289.555C578.859 288.008 577.711 286.953 575.906 286.953C574.195 286.953 572.695 287.891 572.625 289.438H570.141C570.211 286.672 572.766 284.797 575.93 284.797C579.258 284.797 581.367 286.906 581.344 289.414C581.367 291.336 580.172 292.742 578.344 293.188V293.305C580.664 293.633 582 295.18 582 297.336C582 300.172 579.398 302.234 575.883 302.234Z" fill="#343434"/>
<rect x="672" y="37" width="32" height="224" rx="16" fill="url(#paint5_linear_350_4224)"/>
<path d="M660.391 302V300.125L666.273 294.195C668.125 292.25 669.062 291.172 669.062 289.695C669.062 288.031 667.703 286.953 665.922 286.953C664.047 286.953 662.828 288.148 662.828 289.953H660.391C660.367 286.859 662.734 284.797 665.969 284.797C669.25 284.797 671.5 286.859 671.523 289.625C671.5 291.523 670.609 293.023 667.422 296.164L663.977 299.656V299.797H671.805V302H660.391ZM680.57 302.234C676.633 302.234 674.336 299.07 674.336 293.516C674.336 288.008 676.68 284.797 680.57 284.797C684.461 284.797 686.805 288.008 686.805 293.516C686.805 299.07 684.484 302.234 680.57 302.234ZM680.57 300.008C682.867 300.008 684.227 297.758 684.227 293.516C684.227 289.297 682.844 286.977 680.57 286.977C678.297 286.977 676.914 289.297 676.914 293.516C676.914 297.758 678.273 300.008 680.57 300.008ZM689.477 302V300.125L695.359 294.195C697.211 292.25 698.148 291.172 698.148 289.695C698.148 288.031 696.789 286.953 695.008 286.953C693.133 286.953 691.914 288.148 691.914 289.953H689.477C689.453 286.859 691.82 284.797 695.055 284.797C698.336 284.797 700.586 286.859 700.609 289.625C700.586 291.523 699.695 293.023 696.508 296.164L693.062 299.656V299.797H700.891V302H689.477ZM703 298.695V296.609L710.5 285.031H713.688V296.516H716.008V298.695H713.688V302H711.25V298.695H703ZM705.719 296.516H711.25V288.102H711.062L705.719 296.375V296.516Z" fill="#343434"/>
<rect x="805" y="264.5" width="32" height="2.5" rx="1.25" fill="url(#paint6_linear_350_4224)"/>
<path d="M793.543 302V300.125L799.426 294.195C801.277 292.25 802.215 291.172 802.215 289.695C802.215 288.031 800.855 286.953 799.074 286.953C797.199 286.953 795.98 288.148 795.98 289.953H793.543C793.52 286.859 795.887 284.797 799.121 284.797C802.402 284.797 804.652 286.859 804.676 289.625C804.652 291.523 803.762 293.023 800.574 296.164L797.129 299.656V299.797H804.957V302H793.543ZM813.723 302.234C809.785 302.234 807.488 299.07 807.488 293.516C807.488 288.008 809.832 284.797 813.723 284.797C817.613 284.797 819.957 288.008 819.957 293.516C819.957 299.07 817.637 302.234 813.723 302.234ZM813.723 300.008C816.02 300.008 817.379 297.758 817.379 293.516C817.379 289.297 815.996 286.977 813.723 286.977C811.449 286.977 810.066 289.297 810.066 293.516C810.066 297.758 811.426 300.008 813.723 300.008ZM822.629 302V300.125L828.512 294.195C830.363 292.25 831.301 291.172 831.301 289.695C831.301 288.031 829.941 286.953 828.16 286.953C826.285 286.953 825.066 288.148 825.066 289.953H822.629C822.605 286.859 824.973 284.797 828.207 284.797C831.488 284.797 833.738 286.859 833.762 289.625C833.738 291.523 832.848 293.023 829.66 296.164L826.215 299.656V299.797H834.043V302H822.629ZM842.668 302.234C839.457 302.234 837.043 300.266 836.926 297.57H839.434C839.574 299.023 840.957 300.078 842.668 300.078C844.73 300.078 846.207 298.578 846.207 296.562C846.207 294.5 844.684 293 842.551 292.977C841.191 292.977 840.16 293.422 839.574 294.477H837.137L838.238 285.031H847.848V287.234H840.371L839.809 291.992H839.973C840.676 291.312 841.871 290.844 843.16 290.844C846.348 290.844 848.715 293.211 848.715 296.492C848.715 299.844 846.207 302.234 842.668 302.234Z" fill="#343434"/>
<rect x="15" y="10" width="777" height="1" rx="0.5" fill="#FF640D"/>
<path d="M805.695 4.27344V17H804.096V5.92578H804.025L800.932 7.98242V6.38281L804.096 4.27344H805.695ZM813.254 17.1758C810.424 17.1758 808.807 14.8027 808.807 10.6367C808.807 6.50586 810.459 4.09766 813.254 4.09766C816.049 4.09766 817.701 6.50586 817.701 10.6367C817.701 14.8027 816.066 17.1758 813.254 17.1758ZM813.254 15.7695C815.082 15.7695 816.154 13.9238 816.154 10.6367C816.154 7.34961 815.082 5.46875 813.254 5.46875C811.426 5.46875 810.336 7.34961 810.336 10.6367C810.336 13.9238 811.408 15.7695 813.254 15.7695ZM823.977 17.1758C821.146 17.1758 819.529 14.8027 819.529 10.6367C819.529 6.50586 821.182 4.09766 823.977 4.09766C826.771 4.09766 828.424 6.50586 828.424 10.6367C828.424 14.8027 826.789 17.1758 823.977 17.1758ZM823.977 15.7695C825.805 15.7695 826.877 13.9238 826.877 10.6367C826.877 7.34961 825.805 5.46875 823.977 5.46875C822.148 5.46875 821.059 7.34961 821.059 10.6367C821.059 13.9238 822.131 15.7695 823.977 15.7695ZM833.223 10.1797C831.57 10.1797 830.674 8.94922 830.674 7.12109C830.674 5.32812 831.605 4.08008 833.223 4.08008C834.893 4.08008 835.771 5.32812 835.771 7.12109C835.771 8.94922 834.857 10.1797 833.223 10.1797ZM833.223 9.08984C834.084 9.08984 834.488 8.31641 834.488 7.12109C834.488 5.94336 834.119 5.15234 833.223 5.16992C832.379 5.16992 831.957 5.94336 831.957 7.12109C831.957 8.31641 832.379 9.08984 833.223 9.08984ZM840.992 17.1758C839.34 17.1934 838.426 15.9453 838.443 14.1348C838.426 12.3242 839.375 11.0762 840.992 11.0762C842.645 11.0762 843.523 12.3242 843.523 14.1348C843.523 15.9453 842.609 17.1934 840.992 17.1758ZM840.992 16.0859C841.836 16.0859 842.24 15.3125 842.24 14.1348C842.24 12.9395 841.871 12.1484 840.992 12.166C840.148 12.1836 839.709 12.9395 839.709 14.1348C839.709 15.3125 840.131 16.0859 840.992 16.0859ZM831.922 17L840.676 4.27344H842.1L833.346 17H831.922Z" fill="#FF7326"/>
<defs>
<linearGradient id="paint0_linear_350_4224" x1="27.5" y1="32" x2="27.5" y2="257" gradientUnits="userSpaceOnUse">
<stop stop-color="#FF7E36"/>
<stop offset="0.419" stop-color="#FF9459"/>
<stop offset="0.814" stop-color="#FCECE3"/>
<stop offset="0.944" stop-color="#FBFBFB"/>
</linearGradient>
<linearGradient id="paint1_linear_350_4224" x1="159" y1="32" x2="159" y2="257" gradientUnits="userSpaceOnUse">
<stop stop-color="#FF7E36"/>
<stop offset="0.419" stop-color="#FF9459"/>
<stop offset="0.814" stop-color="#FCECE3"/>
<stop offset="0.944" stop-color="#FBFBFB"/>
</linearGradient>
<linearGradient id="paint2_linear_350_4224" x1="290.5" y1="32" x2="290.5" y2="257" gradientUnits="userSpaceOnUse">
<stop stop-color="#FF7E36"/>
<stop offset="0.419" stop-color="#FF9459"/>
<stop offset="0.814" stop-color="#FCECE3"/>
<stop offset="0.944" stop-color="#FBFBFB"/>
</linearGradient>
<linearGradient id="paint3_linear_350_4224" x1="421.5" y1="11" x2="421.5" y2="261" gradientUnits="userSpaceOnUse">
<stop stop-color="#FF7E36"/>
<stop offset="0.419" stop-color="#FF9459"/>
<stop offset="0.814" stop-color="#FCECE3"/>
<stop offset="0.944" stop-color="#FBFBFB"/>
</linearGradient>
<linearGradient id="paint4_linear_350_4224" x1="554.5" y1="39.75" x2="554.5" y2="261" gradientUnits="userSpaceOnUse">
<stop stop-color="#FF7E36"/>
<stop offset="0.419" stop-color="#FF9459"/>
<stop offset="0.814" stop-color="#FCECE3"/>
<stop offset="0.944" stop-color="#FBFBFB"/>
</linearGradient>
<linearGradient id="paint5_linear_350_4224" x1="688" y1="37" x2="688" y2="261" gradientUnits="userSpaceOnUse">
<stop stop-color="#FF7E36"/>
<stop offset="0.419" stop-color="#FF9459"/>
<stop offset="0.814" stop-color="#FCECE3"/>
<stop offset="0.944" stop-color="#FBFBFB"/>
</linearGradient>
<linearGradient id="paint6_linear_350_4224" x1="821" y1="264.5" x2="821" y2="267" gradientUnits="userSpaceOnUse">
<stop stop-color="#FF7E36"/>
<stop offset="0.419" stop-color="#FF9459"/>
<stop offset="0.814" stop-color="#FCECE3"/>
<stop offset="0.944" stop-color="#FBFBFB"/>
</linearGradient>
</defs>
</svg>
