<svg width="1920" height="733" viewBox="0 0 1920 733" fill="none" xmlns="http://www.w3.org/2000/svg">
<path d="M0 127H1421.5C1487.77 127 1541.5 180.726 1541.5 247V247C1541.5 313.274 1487.77 367 1421.5 367H515.257C448.494 367 394.568 421.491 395.263 488.25V488.25C395.948 554.033 449.47 607 515.257 607H1920" stroke="#FF9154" stroke-width="2"/>
<g filter="url(#filter0_d_300_4225)">
<rect x="240" y="20" width="320" height="213" rx="16" fill="#FBFBFB"/>
</g>
<path d="M408.914 64.2262L412.006 61.1315C412.651 60.4868 413.526 60.1246 414.437 60.1246C415.349 60.1246 416.224 60.4868 416.868 61.1315C417.513 61.7763 417.875 62.6507 417.875 63.5625C417.875 64.4743 417.513 65.3488 416.868 65.9935L390.525 92.3367C389.556 93.3054 388.361 94.0174 387.047 94.4084L382.125 95.875L383.592 90.9525C383.983 89.6392 384.695 88.4439 385.663 87.4747L408.914 64.2262ZM408.914 64.2262L413.75 69.0625" stroke="#FF7E36" stroke-width="2.5" stroke-linecap="round" stroke-linejoin="round"/>
<path d="M365.094 112.688V133.906H362.125V131.219H356.5V129.125H362.125V112.688H365.094ZM365.781 137.656V140.062H345.562V131.844H348.5V137.656H365.781ZM341.688 125.469C346.875 125.438 353.844 125.375 359.812 124.625L360 126.75C357.609 127.141 355.094 127.406 352.625 127.562V133.031H349.656V127.719C346.938 127.844 344.328 127.859 342.062 127.844L341.688 125.469ZM350.844 113.75C354.938 113.75 357.781 115.719 357.781 118.688C357.781 121.656 354.938 123.562 350.844 123.562C346.688 123.562 343.875 121.656 343.875 118.688C343.875 115.719 346.688 113.75 350.844 113.75ZM350.844 115.969C348.344 115.938 346.656 117 346.688 118.688C346.656 120.344 348.344 121.375 350.844 121.375C353.25 121.375 354.938 120.344 354.969 118.688C354.938 117 353.25 115.938 350.844 115.969ZM379.562 119.781C379.562 124.906 382.438 130 386.719 131.938L384.906 134.312C381.719 132.719 379.328 129.547 378.094 125.719C376.859 129.75 374.406 133.156 371.188 134.844L369.312 132.438C373.656 130.375 376.562 124.969 376.562 119.781V115H379.562V119.781ZM392.812 112.656V140.719H389.875V124.375H383.625V121.969H389.875V112.656H392.812ZM428.25 112.656V127.906H425.312V121.719H420.062V119.281H425.312V112.656H428.25ZM412.969 129.156V132.375H425.312V129.156H428.25V140.312H410.031V129.156H412.969ZM412.969 137.906H425.312V134.688H412.969V137.906ZM414.969 117.031C414.969 120.5 417.5 124 421.719 125.438L420.188 127.75C417.031 126.641 414.719 124.406 413.5 121.625C412.266 124.734 409.828 127.203 406.5 128.375L404.969 126.031C409.281 124.531 411.938 120.844 411.938 117V116.625H405.875V114.219H420.969V116.625H414.969V117.031ZM446.938 115.125C446.906 118.844 451.469 122.344 456.969 123.062L455.812 125.5C451.234 124.766 447.203 122.391 445.406 119.094C443.562 122.406 439.547 124.766 435 125.5L433.812 123.062C439.312 122.344 443.812 118.875 443.844 115.125V113.594H446.938V115.125ZM458.125 128.25V130.688H446.75V140.656H443.844V130.688H432.594V128.25H458.125Z" fill="#343434"/>
<path d="M296.699 169L296.68 167.711L301.504 162.633C303.184 160.855 303.984 159.898 303.984 158.59C303.984 157.145 302.754 156.188 301.172 156.188C299.492 156.188 298.418 157.262 298.418 158.844H296.758C296.738 156.344 298.672 154.664 301.23 154.664C303.789 154.664 305.625 156.383 305.625 158.59C305.625 160.172 304.883 161.402 302.383 163.98L299.141 167.32V167.438H305.879V169H296.699ZM307.773 166.109V164.664L314.141 154.859H316.309V164.566H318.281V166.109H316.309V169H314.629V166.109H307.773ZM309.668 164.566H314.629V157.086H314.453L309.668 164.449V164.566ZM321.172 169.117C320.488 169.117 319.902 168.551 319.922 167.848C319.902 167.164 320.488 166.598 321.172 166.598C321.855 166.598 322.422 167.164 322.422 167.848C322.422 168.551 321.855 169.117 321.172 169.117ZM328.34 154.859V169H326.562V156.695H326.484L323.047 158.98V157.203L326.562 154.859H328.34ZM336.738 169.195C333.594 169.195 331.797 166.559 331.797 161.93C331.797 157.34 333.633 154.664 336.738 154.664C339.844 154.664 341.68 157.34 341.68 161.93C341.68 166.559 339.863 169.195 336.738 169.195ZM336.738 167.633C338.77 167.633 339.961 165.582 339.961 161.93C339.961 158.277 338.77 156.188 336.738 156.188C334.707 156.188 333.496 158.277 333.496 161.93C333.496 165.582 334.688 167.633 336.738 167.633ZM344.727 169.117C344.043 169.117 343.457 168.551 343.477 167.848C343.457 167.164 344.043 166.598 344.727 166.598C345.41 166.598 345.977 167.164 345.977 167.848C345.977 168.551 345.41 169.117 344.727 169.117ZM351.895 154.859V169H350.117V156.695H350.039L346.602 158.98V157.203L350.117 154.859H351.895ZM355.312 166.109V164.664L361.68 154.859H363.848V164.566H365.82V166.109H363.848V169H362.168V166.109H355.312ZM357.207 164.566H362.168V157.086H361.992L357.207 164.449V164.566ZM373.613 163.609C373.633 159.918 374.629 156.852 376.426 154.254H377.91C376.582 156.188 375.352 160.133 375.352 163.609C375.352 167.086 376.582 171.051 377.91 172.984H376.426C374.629 170.367 373.633 167.301 373.613 163.609ZM393.672 153.238V163.473H392.129V162.516H388.613V161.5H392.129V153.238H393.672ZM379.297 159.781C382.656 159.801 386.953 159.762 390.703 159.352L390.801 160.348C389.102 160.592 387.334 160.738 385.605 160.816V163.531H384.102V160.875C382.461 160.934 380.889 160.943 379.473 160.934L379.297 159.781ZM393.672 164.098V167.691H383.535V169.254H394.238V170.387H382.031V166.617H392.148V165.211H381.953V164.098H393.672ZM384.961 153.57C387.539 153.57 389.258 154.586 389.277 156.188C389.258 157.809 387.539 158.785 384.961 158.785C382.344 158.785 380.645 157.809 380.645 156.188C380.645 154.586 382.344 153.57 384.961 153.57ZM384.961 154.645C383.203 154.645 382.07 155.25 382.09 156.188C382.07 157.105 383.203 157.73 384.961 157.73C386.699 157.73 387.832 157.105 387.832 156.188C387.832 155.25 386.699 154.645 384.961 154.645ZM400.977 163.609C400.957 167.301 399.961 170.367 398.164 172.984H396.68C398.008 171.051 399.238 167.086 399.238 163.609C399.238 160.133 398.008 156.188 396.68 154.254H398.164C399.961 156.852 400.957 159.918 400.977 163.609ZM409.668 161.715C410.293 160.992 411.074 160.602 411.934 160.602C413.418 160.602 414.766 161.734 416.191 161.734C417.07 161.734 417.832 161.305 418.418 160.504V162.125C417.773 162.867 417.012 163.238 416.152 163.238C414.668 163.238 413.32 162.105 411.875 162.105C411.016 162.105 410.254 162.535 409.668 163.336V161.715ZM431.66 154.859V169H429.883V156.695H429.805L426.367 158.98V157.203L429.883 154.859H431.66ZM440.059 169.195C436.914 169.195 435.117 166.559 435.117 161.93C435.117 157.34 436.953 154.664 440.059 154.664C443.164 154.664 445 157.34 445 161.93C445 166.559 443.184 169.195 440.059 169.195ZM440.059 167.633C442.09 167.633 443.281 165.582 443.281 161.93C443.281 158.277 442.09 156.188 440.059 156.188C438.027 156.188 436.816 158.277 436.816 161.93C436.816 165.582 438.008 167.633 440.059 167.633ZM448.047 169.117C447.363 169.117 446.777 168.551 446.797 167.848C446.777 167.164 447.363 166.598 448.047 166.598C448.73 166.598 449.297 167.164 449.297 167.848C449.297 168.551 448.73 169.117 448.047 169.117ZM455.215 154.859V169H453.438V156.695H453.359L449.922 158.98V157.203L453.438 154.859H455.215ZM459.434 169L465.918 156.52V156.422H458.438V154.859H467.734V156.5L461.27 169H459.434ZM475.488 163.609C475.508 159.918 476.504 156.852 478.301 154.254H479.785C478.457 156.188 477.227 160.133 477.227 163.609C477.227 167.086 478.457 171.051 479.785 172.984H478.301C476.504 170.367 475.508 167.301 475.488 163.609ZM495.039 153.961V159.82H489.902V162.047H497.051V163.297H481.23V162.047H488.379V159.82H483.281V153.961H495.039ZM484.785 155.191V158.59H493.516V155.191H484.785ZM495.098 165.113V170.582H493.555V166.344H482.988V165.113H495.098ZM502.852 163.609C502.832 167.301 501.836 170.367 500.039 172.984H498.555C499.883 171.051 501.113 167.086 501.113 163.609C501.113 160.133 499.883 156.188 498.555 154.254H500.039C501.836 156.852 502.832 159.918 502.852 163.609ZM382.305 178.859V193H380.527V180.695H380.449L377.012 182.98V181.203L380.527 178.859H382.305ZM386.523 193L393.008 180.52V180.422H385.527V178.859H394.824V180.5L388.359 193H386.523ZM397.656 191.125C396.973 191.125 396.387 190.559 396.406 189.855C396.387 189.172 396.973 188.605 397.656 188.605C398.34 188.605 398.906 189.172 398.906 189.855C398.906 190.559 398.34 191.125 397.656 191.125ZM397.656 183.273C396.973 183.273 396.387 182.707 396.406 182.004C396.387 181.32 396.973 180.754 397.656 180.754C398.34 180.754 398.906 181.32 398.906 182.004C398.906 182.707 398.34 183.273 397.656 183.273ZM406.152 193.195C403.008 193.195 401.211 190.559 401.211 185.93C401.211 181.34 403.047 178.664 406.152 178.664C409.258 178.664 411.094 181.34 411.094 185.93C411.094 190.559 409.277 193.195 406.152 193.195ZM406.152 191.633C408.184 191.633 409.375 189.582 409.375 185.93C409.375 182.277 408.184 180.188 406.152 180.188C404.121 180.188 402.91 182.277 402.91 185.93C402.91 189.582 404.102 191.633 406.152 191.633ZM418.066 193.195C414.922 193.195 413.125 190.559 413.125 185.93C413.125 181.34 414.961 178.664 418.066 178.664C421.172 178.664 423.008 181.34 423.008 185.93C423.008 190.559 421.191 193.195 418.066 193.195ZM418.066 191.633C420.098 191.633 421.289 189.582 421.289 185.93C421.289 182.277 420.098 180.188 418.066 180.188C416.035 180.188 414.824 182.277 414.824 185.93C414.824 189.582 416.016 191.633 418.066 191.633Z" fill="#737373"/>
<g filter="url(#filter1_d_300_4225)">
<rect x="774" y="500" width="319.5" height="213" rx="16" fill="#FBFBFB"/>
</g>
<path d="M946.395 559.602V571.804C946.395 574.013 944.604 575.804 942.395 575.804H920C917.791 575.804 916 574.013 916 571.804V545C916 542.791 917.791 541 920 541H943.091C944.916 541 946.395 542.479 946.395 544.304V544.304M924.289 551.347H936.263M924.289 558.872H928.895M924.289 566.397H927.053M945 549.304L946.722 547.582C947.704 546.6 949.296 546.6 950.278 547.582V547.582C951.238 548.542 951.263 550.09 950.334 551.08L948.5 553.036M945 549.304L935.139 559.364C934.985 559.522 934.858 559.703 934.763 559.902L932.809 563.989C932.41 564.823 933.259 565.705 934.108 565.339L937.797 563.745C938.035 563.642 938.25 563.494 938.432 563.309L948.5 553.036M945 549.304L948.5 553.036" stroke="#FF7E36" stroke-width="2.5" stroke-linecap="round"/>
<path d="M883.984 592.656V599.688H888.047V602.188H883.984V608.969H881.016V592.656H883.984ZM869.016 610.125V612.844H881.016V610.125H883.984V620.312H866.078V610.125H869.016ZM869.016 617.938H881.016V615.156H869.016V617.938ZM878.703 595.406V597.781H862.016V595.406H868.891V592.406H871.859V595.406H878.703ZM870.359 598.938C874.391 598.938 877.141 600.844 877.141 603.844C877.141 606.812 874.391 608.781 870.359 608.75C866.266 608.781 863.547 606.812 863.547 603.844C863.547 600.844 866.266 598.938 870.359 598.938ZM870.359 601.156C867.984 601.125 866.391 602.219 866.422 603.844C866.391 605.5 867.984 606.562 870.359 606.562C872.734 606.562 874.328 605.5 874.359 603.844C874.328 602.219 872.734 601.125 870.359 601.156ZM904.484 594.5C904.484 595.562 904.375 596.562 904.172 597.531H910.016V592.688H912.984V609.344H910.016V605.844H902.953V603.438H910.016V599.906H903.422C901.531 604.297 897.234 607.438 891.172 609.062L890.047 606.719C896.703 604.922 900.75 601.359 901.297 596.906H891.516V594.5H904.484ZM912.984 610.562V620.594H910.016V612.906H894.016V610.562H912.984ZM927.047 600.906C927.047 605.344 929.953 610.281 934.203 612.281L932.516 614.594C929.375 613.078 926.891 609.922 925.641 606.25C924.344 610.266 921.719 613.719 918.516 615.312L916.766 612.969C921.016 610.938 924.109 605.656 924.109 600.906V597.938H917.797V595.469H933.141V597.938H927.047V600.906ZM939.109 592.656V603.75H943.609V606.25H939.109V620.656H936.141V592.656H939.109ZM978.328 605.812V608.25H952.766V605.812H978.328ZM975.359 600.969V603.375H955.953V593.656H975.172V596.094H958.891V600.969H975.359ZM965.516 610.438C971.547 610.438 975.172 612.281 975.172 615.531C975.172 618.781 971.547 620.625 965.516 620.594C959.453 620.625 955.797 618.781 955.797 615.531C955.797 612.281 959.453 610.438 965.516 610.438ZM965.516 612.719C961.234 612.75 958.797 613.75 958.797 615.531C958.797 617.312 961.234 618.312 965.516 618.312C969.734 618.312 972.203 617.312 972.203 615.531C972.203 613.75 969.734 612.75 965.516 612.719ZM1006.02 607.938V610.344H980.391V607.938H991.734V605.281H983.672V598.156H999.828V595.656H983.609V593.312H1002.8V600.344H986.609V602.969H1003.36V605.281H994.672V607.938H1006.02ZM1002.95 612.312V620.438H999.953V614.688H983.266V612.312H1002.95Z" fill="#343434"/>
<path d="M843.629 649L843.609 647.711L848.434 642.633C850.113 640.855 850.914 639.898 850.914 638.59C850.914 637.145 849.684 636.188 848.102 636.188C846.422 636.188 845.348 637.262 845.348 638.844H843.688C843.668 636.344 845.602 634.664 848.16 634.664C850.719 634.664 852.555 636.383 852.555 638.59C852.555 640.172 851.812 641.402 849.312 643.98L846.07 647.32V647.438H852.809V649H843.629ZM854.703 646.109V644.664L861.07 634.859H863.238V644.566H865.211V646.109H863.238V649H861.559V646.109H854.703ZM856.598 644.566H861.559V637.086H861.383L856.598 644.449V644.566ZM868.102 649.117C867.418 649.117 866.832 648.551 866.852 647.848C866.832 647.164 867.418 646.598 868.102 646.598C868.785 646.598 869.352 647.164 869.352 647.848C869.352 648.551 868.785 649.117 868.102 649.117ZM875.27 634.859V649H873.492V636.695H873.414L869.977 638.98V637.203L873.492 634.859H875.27ZM884.039 634.859V649H882.262V636.695H882.184L878.746 638.98V637.203L882.262 634.859H884.039ZM888.18 649.117C887.496 649.117 886.91 648.551 886.93 647.848C886.91 647.164 887.496 646.598 888.18 646.598C888.863 646.598 889.43 647.164 889.43 647.848C889.43 648.551 888.863 649.117 888.18 649.117ZM895.348 634.859V649H893.57V636.695H893.492L890.055 638.98V637.203L893.57 634.859H895.348ZM904.586 643.609C904.605 639.918 905.602 636.852 907.398 634.254H908.883C907.555 636.188 906.324 640.133 906.324 643.609C906.324 647.086 907.555 651.051 908.883 652.984H907.398C905.602 650.367 904.605 647.301 904.586 643.609ZM924.137 634.156V635.445C924.137 636.793 924.137 638.375 923.688 640.543H926.227V641.812H910.328V640.543H922.145C922.613 638.365 922.613 636.793 922.613 635.445V635.426H912.34V634.156H924.137ZM924.215 644.215V650.348H912.281V644.215H924.215ZM913.805 645.426V649.098H922.691V645.426H913.805ZM931.949 643.609C931.93 647.301 930.934 650.367 929.137 652.984H927.652C928.98 651.051 930.211 647.086 930.211 643.609C930.211 640.133 928.98 636.188 927.652 634.254H929.137C930.934 636.852 931.93 639.918 931.949 643.609ZM940.641 641.715C941.266 640.992 942.047 640.602 942.906 640.602C944.391 640.602 945.738 641.734 947.164 641.734C948.043 641.734 948.805 641.305 949.391 640.504V642.125C948.746 642.867 947.984 643.238 947.125 643.238C945.641 643.238 944.293 642.105 942.848 642.105C941.988 642.105 941.227 642.535 940.641 643.336V641.715ZM962.633 634.859V649H960.855V636.695H960.777L957.34 638.98V637.203L960.855 634.859H962.633ZM971.402 634.859V649H969.625V636.695H969.547L966.109 638.98V637.203L969.625 634.859H971.402ZM975.543 649.117C974.859 649.117 974.273 648.551 974.293 647.848C974.273 647.164 974.859 646.598 975.543 646.598C976.227 646.598 976.793 647.164 976.793 647.848C976.793 648.551 976.227 649.117 975.543 649.117ZM983.688 649.195C980.719 649.195 978.648 647.555 978.668 645.25C978.648 643.414 979.918 641.91 981.539 641.656V641.578C980.133 641.246 979.215 639.957 979.215 638.414C979.215 636.246 981.109 634.664 983.688 634.664C986.266 634.664 988.16 636.246 988.18 638.414C988.16 639.957 987.223 641.246 985.836 641.578V641.656C987.438 641.91 988.707 643.414 988.727 645.25C988.707 647.555 986.637 649.195 983.688 649.195ZM983.688 647.652C985.719 647.652 986.969 646.637 986.969 645.152C986.969 643.59 985.582 642.438 983.688 642.438C981.793 642.438 980.387 643.59 980.426 645.152C980.387 646.637 981.656 647.652 983.688 647.652ZM983.688 640.953C985.289 640.953 986.461 639.977 986.461 638.551C986.461 637.145 985.348 636.188 983.688 636.188C982.008 636.188 980.914 637.145 980.914 638.551C980.914 639.977 982.066 640.953 983.688 640.953ZM996.559 643.609C996.578 639.918 997.574 636.852 999.371 634.254H1000.86C999.527 636.188 998.297 640.133 998.297 643.609C998.297 647.086 999.527 651.051 1000.86 652.984H999.371C997.574 650.367 996.578 647.301 996.559 643.609ZM1016.11 634.156V635.445C1016.11 636.793 1016.11 638.375 1015.66 640.543H1018.2V641.812H1002.3V640.543H1014.12C1014.59 638.365 1014.59 636.793 1014.59 635.445V635.426H1004.31V634.156H1016.11ZM1016.19 644.215V650.348H1004.25V644.215H1016.19ZM1005.78 645.426V649.098H1014.66V645.426H1005.78ZM1023.92 643.609C1023.9 647.301 1022.91 650.367 1021.11 652.984H1019.62C1020.95 651.051 1022.18 647.086 1022.18 643.609C1022.18 640.133 1020.95 636.188 1019.62 634.254H1021.11C1022.91 636.852 1023.9 639.918 1023.92 643.609ZM916.305 658.859V673H914.527V660.695H914.449L911.012 662.98V661.203L914.527 658.859H916.305ZM920.523 673L927.008 660.52V660.422H919.527V658.859H928.824V660.5L922.359 673H920.523ZM931.656 671.125C930.973 671.125 930.387 670.559 930.406 669.855C930.387 669.172 930.973 668.605 931.656 668.605C932.34 668.605 932.906 669.172 932.906 669.855C932.906 670.559 932.34 671.125 931.656 671.125ZM931.656 663.273C930.973 663.273 930.387 662.707 930.406 662.004C930.387 661.32 930.973 660.754 931.656 660.754C932.34 660.754 932.906 661.32 932.906 662.004C932.906 662.707 932.34 663.273 931.656 663.273ZM940.152 673.195C937.008 673.195 935.211 670.559 935.211 665.93C935.211 661.34 937.047 658.664 940.152 658.664C943.258 658.664 945.094 661.34 945.094 665.93C945.094 670.559 943.277 673.195 940.152 673.195ZM940.152 671.633C942.184 671.633 943.375 669.582 943.375 665.93C943.375 662.277 942.184 660.188 940.152 660.188C938.121 660.188 936.91 662.277 936.91 665.93C936.91 669.582 938.102 671.633 940.152 671.633ZM952.066 673.195C948.922 673.195 947.125 670.559 947.125 665.93C947.125 661.34 948.961 658.664 952.066 658.664C955.172 658.664 957.008 661.34 957.008 665.93C957.008 670.559 955.191 673.195 952.066 673.195ZM952.066 671.633C954.098 671.633 955.289 669.582 955.289 665.93C955.289 662.277 954.098 660.188 952.066 660.188C950.035 660.188 948.824 662.277 948.824 665.93C948.824 669.582 950.016 671.633 952.066 671.633Z" fill="#737373"/>
<g filter="url(#filter2_d_300_4225)">
<rect x="1360" y="500" width="319.5" height="213" rx="16" fill="#FBFBFB"/>
</g>
<path d="M1526.5 552H1512.5C1511.95 552 1511.5 552.448 1511.5 553V561C1511.5 561.552 1511.05 562 1510.5 562H1502.5C1501.95 562 1501.5 562.448 1501.5 563V577C1501.5 577.552 1501.95 578 1502.5 578H1510.5C1511.05 578 1511.5 578.448 1511.5 579V587C1511.5 587.552 1511.95 588 1512.5 588H1526.5C1527.05 588 1527.5 587.552 1527.5 587V579C1527.5 578.448 1527.95 578 1528.5 578H1536.5C1537.05 578 1537.5 577.552 1537.5 577V563C1537.5 562.448 1537.05 562 1536.5 562H1528.5C1527.95 562 1527.5 561.552 1527.5 561V553C1527.5 552.448 1527.05 552 1526.5 552Z" stroke="#FF7E36" stroke-width="2.5" stroke-linecap="round"/>
<path d="M1425.44 604.688V625.312H1422.47V615.594H1416.66V613.125H1422.47V604.688H1425.44ZM1416.84 606.781C1416.81 614.094 1411.78 619.594 1403.75 622.188L1402.5 619.812C1408.73 617.797 1412.97 613.984 1413.59 609.25H1403.94V606.781H1416.84ZM1426.16 629.656V632.062H1407.41V623.188H1410.41V629.656H1426.16ZM1451.75 604.656V611.719H1455.81V614.125H1451.75V621.281H1448.78V604.656H1451.75ZM1444.06 606.656C1444.06 613.906 1439.16 619.125 1430.94 621.5L1429.72 619.094C1436.27 617.234 1440.31 613.594 1440.84 609.062H1430.97V606.656H1444.06ZM1442.81 621.594C1448.47 621.594 1452.06 623.688 1452.06 627.094C1452.06 630.531 1448.47 632.625 1442.81 632.625C1437.19 632.625 1433.5 630.531 1433.53 627.094C1433.5 623.688 1437.19 621.594 1442.81 621.594ZM1442.81 623.938C1438.91 623.938 1436.44 625.125 1436.47 627.094C1436.44 629.062 1438.91 630.281 1442.81 630.281C1446.69 630.281 1449.16 629.062 1449.16 627.094C1449.16 625.125 1446.69 623.938 1442.81 623.938ZM1471.88 606.406C1471.88 613.531 1467 618.594 1458.88 620.875L1457.66 618.562C1464.11 616.75 1468.12 613.25 1468.72 608.844H1459.12V606.406H1471.88ZM1480.75 604.688V620.531H1477.78V614.156H1472V611.688H1477.78V604.688H1480.75ZM1480.75 621.688V632.281H1462.44V621.688H1480.75ZM1465.34 624.062V629.906H1477.81V624.062H1465.34ZM1495.44 610.5C1495.44 614.125 1498.12 617.531 1502.44 618.906L1500.91 621.219C1497.69 620.156 1495.25 617.953 1494 615.156C1492.73 618.203 1490.25 620.609 1486.91 621.781L1485.38 619.438C1489.72 617.969 1492.41 614.344 1492.44 610.5V609.281H1486.16V606.875H1501.59V609.281H1495.44V610.5ZM1508.28 604.688V625.125H1505.31V604.688H1508.28ZM1509.12 629.656V632.062H1489.97V623.188H1492.97V629.656H1509.12ZM1543.88 604.656V618.906H1540.91V616.219H1533.81V613.906H1540.91V610.875H1534.16C1532.42 615.219 1528.2 618.078 1522 619.531L1520.97 617.094C1527.69 615.609 1531.33 612.5 1531.81 608.375H1522.44V605.938H1535.06C1535.06 606.844 1534.98 607.703 1534.84 608.531H1540.91V604.656H1543.88ZM1543.88 620.094V627.188H1528.56V630H1544.72V632.375H1525.62V624.938H1540.91V622.438H1525.56V620.094H1543.88ZM1563.78 607.656V609.375C1563.78 611.719 1563.78 615.344 1562.97 620.344L1560.03 620.125C1560.73 615.641 1560.81 612.406 1560.84 610.062H1549.47V607.656H1563.78ZM1556.59 615.656V624.031C1559.58 623.938 1562.61 623.734 1565.41 623.375L1565.56 625.594C1559.72 626.531 1553.22 626.656 1548.25 626.625L1547.91 624.219C1549.66 624.203 1551.61 624.188 1553.66 624.125V615.656H1556.59ZM1570 604.656V616.219H1574.28V618.75H1570V632.656H1567V604.656H1570ZM1607.69 604.656V632.656H1604.84V604.656H1607.69ZM1602 605.25V631.25H1599.19V617H1594.84V614.562H1599.19V605.25H1602ZM1592.09 612.469C1592.09 617.25 1594.03 622.031 1597.97 624.312L1596.19 626.5C1593.52 624.906 1591.67 622.078 1590.72 618.688C1589.7 622.344 1587.8 625.453 1585.06 627.156L1583.25 624.938C1587.22 622.531 1589.25 617.438 1589.25 612.469V610.219H1584.09V607.812H1596.91V610.219H1592.09V612.469ZM1636.81 616.938V619.156H1625.53V621.5H1633.62V627.812H1617.31V630.125H1634.41V632.375H1614.41V625.75H1630.69V623.656H1614.38V621.5H1622.59V619.156H1611.34V616.938H1636.81ZM1625.53 604.531V607H1634.28V609.281H1625.78C1626.34 611.656 1630.14 613.312 1635.56 613.594L1634.66 615.844C1629.78 615.5 1625.81 614.062 1624.06 611.594C1622.31 614.062 1618.34 615.5 1613.44 615.844L1612.59 613.594C1617.97 613.312 1621.75 611.656 1622.38 609.281H1613.88V607H1622.59V604.531H1625.53Z" fill="#343434"/>
<path d="M1425.3 661L1425.28 659.711L1430.11 654.633C1431.79 652.855 1432.59 651.898 1432.59 650.59C1432.59 649.145 1431.36 648.188 1429.77 648.188C1428.09 648.188 1427.02 649.262 1427.02 650.844H1425.36C1425.34 648.344 1427.27 646.664 1429.83 646.664C1432.39 646.664 1434.23 648.383 1434.23 650.59C1434.23 652.172 1433.48 653.402 1430.98 655.98L1427.74 659.32V659.438H1434.48V661H1425.3ZM1436.38 658.109V656.664L1442.74 646.859H1444.91V656.566H1446.88V658.109H1444.91V661H1443.23V658.109H1436.38ZM1438.27 656.566H1443.23V649.086H1443.05L1438.27 656.449V656.566ZM1449.77 661.117C1449.09 661.117 1448.5 660.551 1448.52 659.848C1448.5 659.164 1449.09 658.598 1449.77 658.598C1450.46 658.598 1451.02 659.164 1451.02 659.848C1451.02 660.551 1450.46 661.117 1449.77 661.117ZM1456.94 646.859V661H1455.16V648.695H1455.09L1451.65 650.98V649.203L1455.16 646.859H1456.94ZM1465.71 646.859V661H1463.93V648.695H1463.86L1460.42 650.98V649.203L1463.93 646.859H1465.71ZM1469.85 661.117C1469.17 661.117 1468.58 660.551 1468.6 659.848C1468.58 659.164 1469.17 658.598 1469.85 658.598C1470.54 658.598 1471.1 659.164 1471.1 659.848C1471.1 660.551 1470.54 661.117 1469.85 661.117ZM1477.02 646.859V661H1475.24V648.695H1475.16L1471.73 650.98V649.203L1475.24 646.859H1477.02ZM1486.26 655.609C1486.28 651.918 1487.27 648.852 1489.07 646.254H1490.55C1489.23 648.188 1488 652.133 1488 655.609C1488 659.086 1489.23 663.051 1490.55 664.984H1489.07C1487.27 662.367 1486.28 659.301 1486.26 655.609ZM1505.81 646.156V647.445C1505.81 648.793 1505.81 650.375 1505.36 652.543H1507.9V653.812H1492V652.543H1503.82C1504.29 650.365 1504.29 648.793 1504.29 647.445V647.426H1494.01V646.156H1505.81ZM1505.89 656.215V662.348H1493.95V656.215H1505.89ZM1495.48 657.426V661.098H1504.36V657.426H1495.48ZM1513.62 655.609C1513.6 659.301 1512.61 662.367 1510.81 664.984H1509.32C1510.65 663.051 1511.88 659.086 1511.88 655.609C1511.88 652.133 1510.65 648.188 1509.32 646.254H1510.81C1512.61 648.852 1513.6 651.918 1513.62 655.609ZM1522.31 653.715C1522.94 652.992 1523.72 652.602 1524.58 652.602C1526.06 652.602 1527.41 653.734 1528.84 653.734C1529.71 653.734 1530.48 653.305 1531.06 652.504V654.125C1530.42 654.867 1529.66 655.238 1528.8 655.238C1527.31 655.238 1525.96 654.105 1524.52 654.105C1523.66 654.105 1522.9 654.535 1522.31 655.336V653.715ZM1544.3 646.859V661H1542.53V648.695H1542.45L1539.01 650.98V649.203L1542.53 646.859H1544.3ZM1553.07 646.859V661H1551.3V648.695H1551.22L1547.78 650.98V649.203L1551.3 646.859H1553.07ZM1557.21 661.117C1556.53 661.117 1555.95 660.551 1555.96 659.848C1555.95 659.164 1556.53 658.598 1557.21 658.598C1557.9 658.598 1558.46 659.164 1558.46 659.848C1558.46 660.551 1557.9 661.117 1557.21 661.117ZM1564.38 646.859V661H1562.61V648.695H1562.53L1559.09 650.98V649.203L1562.61 646.859H1564.38ZM1573.07 661.195C1570.61 661.156 1567.92 659.711 1567.92 654.477C1567.92 649.477 1569.97 646.664 1573.29 646.664C1575.77 646.664 1577.51 648.188 1577.88 650.414H1576.14C1575.81 649.164 1574.87 648.227 1573.29 648.227C1570.96 648.227 1569.58 650.219 1569.58 653.617H1569.75C1570.57 652.445 1571.86 651.742 1573.39 651.742C1575.91 651.742 1578 653.695 1578 656.43C1578 659.086 1576.04 661.215 1573.07 661.195ZM1573.07 659.652C1574.91 659.652 1576.28 658.207 1576.3 656.449C1576.28 654.711 1574.97 653.285 1573.11 653.285C1571.26 653.285 1569.83 654.789 1569.81 656.469C1569.81 658.129 1571.18 659.652 1573.07 659.652ZM1585.89 655.609C1585.91 651.918 1586.9 648.852 1588.7 646.254H1590.18C1588.86 648.188 1587.62 652.133 1587.62 655.609C1587.62 659.086 1588.86 663.051 1590.18 664.984H1588.7C1586.9 662.367 1585.91 659.301 1585.89 655.609ZM1605.69 654.262V655.512H1600.3V659.145H1607.53V660.414H1591.63V659.145H1598.78V655.512H1593.68V646.645H1605.5V647.914H1595.24V650.395H1605.12V651.645H1595.24V654.262H1605.69ZM1613.25 655.609C1613.23 659.301 1612.23 662.367 1610.44 664.984H1608.95C1610.28 663.051 1611.51 659.086 1611.51 655.609C1611.51 652.133 1610.28 648.188 1608.95 646.254H1610.44C1612.23 648.852 1613.23 651.918 1613.25 655.609Z" fill="#737373"/>
<g filter="url(#filter3_d_300_4225)">
<rect x="560" y="261" width="319.5" height="213" rx="16" fill="#FBFBFB"/>
</g>
<path d="M720 319V330M720 319C727.088 319 732.833 313.286 732.833 306.236C732.833 306.053 732.83 305.87 732.822 305.686C732.744 303.853 732.705 302.936 731.462 301.802C730.219 300.667 728.846 300.667 726.094 300.667H713.906C711.156 300.667 709.779 300.667 708.538 301.803C707.297 302.936 707.257 303.853 707.178 305.685C707.17 305.868 707.167 306.052 707.167 306.236C707.167 313.286 712.912 319 720 319ZM720 330C716.931 330 714.262 331.855 712.883 334.593C712.223 335.9 713.169 337.333 714.423 337.333H725.575C726.831 337.333 727.775 335.9 727.117 334.593C725.738 331.855 723.069 330 720 330ZM707.167 306.167H705.306C703.496 306.167 702.593 306.167 702.033 306.845C701.474 307.525 701.639 308.286 701.967 309.808C702.591 312.712 703.949 315.266 705.79 317.167M732.833 306.167H734.694C736.504 306.167 737.408 306.167 737.967 306.845C738.526 307.525 738.361 308.286 738.035 309.808C737.408 312.712 736.051 315.266 734.208 317.167" stroke="#FF7E36" stroke-width="2.5" stroke-linecap="round" stroke-linejoin="round"/>
<path d="M627.266 368.531V373.375C629.828 373.234 632.422 373.016 634.859 372.656L635.078 374.844C628.734 376 621.953 376.062 616.953 376.062L616.578 373.625C618.828 373.609 621.484 373.594 624.297 373.5V368.531H627.266ZM633.547 357.219V359.625H627.266C627.422 362.906 630.078 365.75 634.266 366.875L632.891 369.188C629.547 368.234 627.047 366.203 625.797 363.531C624.562 366.344 622.109 368.469 618.734 369.438L617.328 367.188C621.5 366 624.125 363.062 624.266 359.625H618.078V357.219H624.297V353.875H627.266V357.219H633.547ZM639.578 353.656V381.719H636.609V353.656H639.578ZM658.297 363.625V367.406H669.609V369.844H644.078V367.406H655.359V363.625H658.297ZM656.828 371.875C662.891 371.875 666.484 373.594 666.484 376.75C666.484 379.875 662.891 381.625 656.828 381.594C650.734 381.625 647.109 379.875 647.109 376.75C647.109 373.594 650.734 371.875 656.828 371.875ZM656.828 374.156C652.516 374.156 650.109 375.062 650.109 376.75C650.109 378.438 652.516 379.344 656.828 379.344C661.078 379.344 663.516 378.438 663.516 376.75C663.516 375.062 661.078 374.156 656.828 374.156ZM667.328 354.938V357.312H658.828C659.25 359.984 663.219 362.25 668.297 362.75L667.234 365.094C662.359 364.531 658.359 362.531 656.828 359.562C655.297 362.531 651.297 364.531 646.453 365.094L645.391 362.75C650.438 362.25 654.406 360.016 654.828 357.312H646.422V354.938H667.328ZM701.547 353.656V360.688H705.609V363.188H701.547V369.969H698.578V353.656H701.547ZM686.578 371.125V373.844H698.578V371.125H701.547V381.312H683.641V371.125H686.578ZM686.578 378.938H698.578V376.156H686.578V378.938ZM696.266 356.406V358.781H679.578V356.406H686.453V353.406H689.422V356.406H696.266ZM687.922 359.938C691.953 359.938 694.703 361.844 694.703 364.844C694.703 367.812 691.953 369.781 687.922 369.75C683.828 369.781 681.109 367.812 681.109 364.844C681.109 361.844 683.828 359.938 687.922 359.938ZM687.922 362.156C685.547 362.125 683.953 363.219 683.984 364.844C683.953 366.5 685.547 367.562 687.922 367.562C690.297 367.562 691.891 366.5 691.922 364.844C691.891 363.219 690.297 362.125 687.922 362.156ZM722.047 355.5C722.047 356.562 721.938 357.562 721.734 358.531H727.578V353.688H730.547V370.344H727.578V366.844H720.516V364.438H727.578V360.906H720.984C719.094 365.297 714.797 368.438 708.734 370.062L707.609 367.719C714.266 365.922 718.312 362.359 718.859 357.906H709.078V355.5H722.047ZM730.547 371.562V381.594H727.578V373.906H711.578V371.562H730.547ZM744.609 361.906C744.609 366.344 747.516 371.281 751.766 373.281L750.078 375.594C746.938 374.078 744.453 370.922 743.203 367.25C741.906 371.266 739.281 374.719 736.078 376.312L734.328 373.969C738.578 371.938 741.672 366.656 741.672 361.906V358.938H735.359V356.469H750.703V358.938H744.609V361.906ZM756.672 353.656V364.75H761.172V367.25H756.672V381.656H753.703V353.656H756.672ZM774.328 354.844V358.656H781.672V354.844H784.609V367.062H771.422V354.844H774.328ZM774.328 364.688H781.672V360.938H774.328V364.688ZM792.328 353.656V359.531H796.391V361.938H792.328V368.062H789.359V353.656H792.328ZM792.328 369.281V376.344H777.203V379H793.297V381.375H774.297V374.156H789.391V371.625H774.234V369.281H792.328ZM823.609 375.906V378.344H797.984V375.906H804.859V369.688H800.234V367.281H804.422V358.562H800.172V356.125H821.266V358.562H816.984V367.281H821.172V369.688H816.578V375.906H823.609ZM807.359 367.281H814.078V358.562H807.359V367.281ZM807.828 375.906H813.609V369.688H807.828V375.906Z" fill="#343434"/>
<path d="M667.119 410L667.1 408.711L671.924 403.633C673.604 401.855 674.404 400.898 674.404 399.59C674.404 398.145 673.174 397.188 671.592 397.188C669.912 397.188 668.838 398.262 668.838 399.844H667.178C667.158 397.344 669.092 395.664 671.65 395.664C674.209 395.664 676.045 397.383 676.045 399.59C676.045 401.172 675.303 402.402 672.803 404.98L669.561 408.32V408.438H676.299V410H667.119ZM678.193 407.109V405.664L684.561 395.859H686.729V405.566H688.701V407.109H686.729V410H685.049V407.109H678.193ZM680.088 405.566H685.049V398.086H684.873L680.088 405.449V405.566ZM691.592 410.117C690.908 410.117 690.322 409.551 690.342 408.848C690.322 408.164 690.908 407.598 691.592 407.598C692.275 407.598 692.842 408.164 692.842 408.848C692.842 409.551 692.275 410.117 691.592 410.117ZM698.76 395.859V410H696.982V397.695H696.904L693.467 399.98V398.203L696.982 395.859H698.76ZM707.158 410.195C704.014 410.195 702.217 407.559 702.217 402.93C702.217 398.34 704.053 395.664 707.158 395.664C710.264 395.664 712.1 398.34 712.1 402.93C712.1 407.559 710.283 410.195 707.158 410.195ZM707.158 408.633C709.189 408.633 710.381 406.582 710.381 402.93C710.381 399.277 709.189 397.188 707.158 397.188C705.127 397.188 703.916 399.277 703.916 402.93C703.916 406.582 705.107 408.633 707.158 408.633ZM715.146 410.117C714.463 410.117 713.877 409.551 713.896 408.848C713.877 408.164 714.463 407.598 715.146 407.598C715.83 407.598 716.396 408.164 716.396 408.848C716.396 409.551 715.83 410.117 715.146 410.117ZM723.369 410.195C720.557 410.195 718.545 408.691 718.447 406.445H720.225C720.322 407.793 721.67 408.633 723.35 408.633C725.205 408.633 726.572 407.617 726.572 406.152C726.572 404.609 725.342 403.516 723.135 403.516H721.982V401.973H723.135C724.854 401.973 726.045 401.016 726.045 399.551C726.045 398.145 725.01 397.188 723.408 397.188C721.904 397.188 720.518 398.027 720.439 399.414H718.74C718.838 397.168 720.908 395.664 723.428 395.664C726.123 395.664 727.764 397.422 727.744 399.453C727.764 401.055 726.826 402.246 725.342 402.656V402.754C727.178 403.047 728.311 404.355 728.291 406.152C728.311 408.477 726.182 410.195 723.369 410.195ZM735.83 395.859V410H734.053V397.695H733.975L730.537 399.98V398.203L734.053 395.859H735.83ZM745.068 404.609C745.088 400.918 746.084 397.852 747.881 395.254H749.365C748.037 397.188 746.807 401.133 746.807 404.609C746.807 408.086 748.037 412.051 749.365 413.984H747.881C746.084 411.367 745.088 408.301 745.068 404.609ZM764.619 394.961V400.82H759.482V403.047H766.631V404.297H750.811V403.047H757.959V400.82H752.861V394.961H764.619ZM754.365 396.191V399.59H763.096V396.191H754.365ZM764.678 406.113V411.582H763.135V407.344H752.568V406.113H764.678ZM772.432 404.609C772.412 408.301 771.416 411.367 769.619 413.984H768.135C769.463 412.051 770.693 408.086 770.693 404.609C770.693 401.133 769.463 397.188 768.135 395.254H769.619C771.416 397.852 772.412 400.918 772.432 404.609ZM701.533 419.859V434H699.756V421.695H699.678L696.24 423.98V422.203L699.756 419.859H701.533ZM709.932 434.195C706.787 434.195 704.99 431.559 704.99 426.93C704.99 422.34 706.826 419.664 709.932 419.664C713.037 419.664 714.873 422.34 714.873 426.93C714.873 431.559 713.057 434.195 709.932 434.195ZM709.932 432.633C711.963 432.633 713.154 430.582 713.154 426.93C713.154 423.277 711.963 421.188 709.932 421.188C707.9 421.188 706.689 423.277 706.689 426.93C706.689 430.582 707.881 432.633 709.932 432.633ZM718.428 432.125C717.744 432.125 717.158 431.559 717.178 430.855C717.158 430.172 717.744 429.605 718.428 429.605C719.111 429.605 719.678 430.172 719.678 430.855C719.678 431.559 719.111 432.125 718.428 432.125ZM718.428 424.273C717.744 424.273 717.158 423.707 717.178 423.004C717.158 422.32 717.744 421.754 718.428 421.754C719.111 421.754 719.678 422.32 719.678 423.004C719.678 423.707 719.111 424.273 718.428 424.273ZM726.924 434.195C723.779 434.195 721.982 431.559 721.982 426.93C721.982 422.34 723.818 419.664 726.924 419.664C730.029 419.664 731.865 422.34 731.865 426.93C731.865 431.559 730.049 434.195 726.924 434.195ZM726.924 432.633C728.955 432.633 730.146 430.582 730.146 426.93C730.146 423.277 728.955 421.188 726.924 421.188C724.893 421.188 723.682 423.277 723.682 426.93C723.682 430.582 724.873 432.633 726.924 432.633ZM738.838 434.195C735.693 434.195 733.896 431.559 733.896 426.93C733.896 422.34 735.732 419.664 738.838 419.664C741.943 419.664 743.779 422.34 743.779 426.93C743.779 431.559 741.963 434.195 738.838 434.195ZM738.838 432.633C740.869 432.633 742.061 430.582 742.061 426.93C742.061 423.277 740.869 421.188 738.838 421.188C736.807 421.188 735.596 423.277 735.596 426.93C735.596 430.582 736.787 432.633 738.838 432.633Z" fill="#737373"/>
<g filter="url(#filter4_d_300_4225)">
<rect x="1148" y="261" width="320" height="213" rx="16" fill="#FBFBFB"/>
</g>
<path d="M1320.39 332.602V344.804C1320.39 347.013 1318.6 348.804 1316.39 348.804H1294C1291.79 348.804 1290 347.013 1290 344.804V318C1290 315.791 1291.79 314 1294 314H1317.09C1318.92 314 1320.39 315.479 1320.39 317.304V317.304M1298.29 324.347H1310.26M1298.29 331.872H1302.89M1298.29 339.397H1301.05M1319 322.304L1320.72 320.582C1321.7 319.6 1323.3 319.6 1324.28 320.582V320.582C1325.24 321.542 1325.26 323.09 1324.33 324.08L1322.5 326.036M1319 322.304L1309.14 332.364C1308.98 332.522 1308.86 332.703 1308.76 332.902L1306.81 336.989C1306.41 337.823 1307.26 338.705 1308.11 338.339L1311.8 336.745C1312.03 336.642 1312.25 336.494 1312.43 336.309L1322.5 326.036M1319 322.304L1322.5 326.036" stroke="#FF7E36" stroke-width="2.5" stroke-linecap="round"/>
<path d="M1196.53 370.625C1196.53 374.156 1199.06 377.625 1203.28 379.062L1201.75 381.375C1198.61 380.281 1196.28 378.047 1195.06 375.281C1193.84 378.359 1191.39 380.828 1188.06 382L1186.53 379.656C1190.84 378.188 1193.5 374.438 1193.5 370.656V369.875H1187.44V367.469H1202.53V369.875H1196.53V370.625ZM1209.84 383.812V393.656H1206.88V386.219H1190.88V383.812H1209.84ZM1209.84 365.656V382.406H1206.88V375.219H1201.69V372.781H1206.88V365.656H1209.84ZM1224.09 369.844C1224.09 373.781 1226.62 377.281 1230.88 378.656L1229.25 380.969C1226.17 379.859 1223.91 377.703 1222.69 374.906C1221.47 378.109 1219.03 380.594 1215.66 381.812L1214.06 379.438C1218.53 377.906 1221.12 374.188 1221.16 369.969V367.219H1224.09V369.844ZM1237.5 365.656V382.188H1234.53V373.781H1228.62V371.344H1234.53V365.656H1237.5ZM1228.12 382.969C1234 382.969 1237.59 384.906 1237.59 388.312C1237.59 391.688 1234 393.625 1228.12 393.594C1222.25 393.625 1218.62 391.688 1218.66 388.312C1218.62 384.906 1222.25 382.969 1228.12 382.969ZM1228.12 385.281C1224.03 385.281 1221.59 386.375 1221.59 388.312C1221.59 390.188 1224.03 391.25 1228.12 391.25C1232.22 391.25 1234.66 390.188 1234.66 388.312C1234.66 386.375 1232.22 385.281 1228.12 385.281ZM1256.28 367.406C1256.28 374.531 1251.41 379.594 1243.28 381.875L1242.06 379.562C1248.52 377.75 1252.53 374.25 1253.12 369.844H1243.53V367.406H1256.28ZM1265.16 365.688V381.531H1262.19V375.156H1256.41V372.688H1262.19V365.688H1265.16ZM1265.16 382.688V393.281H1246.84V382.688H1265.16ZM1249.75 385.062V390.906H1262.22V385.062H1249.75ZM1279.19 372.781C1279.16 377.75 1282.03 382.812 1286.22 384.844L1284.38 387.219C1281.33 385.641 1278.97 382.5 1277.75 378.75C1276.48 382.75 1274.03 386.094 1270.84 387.75L1269 385.344C1273.31 383.281 1276.22 377.906 1276.22 372.781V368H1279.19V372.781ZM1291.28 365.656V376.812H1295.78V379.344H1291.28V393.656H1288.31V365.656H1291.28ZM1302.16 388.844L1299.66 397.469H1297L1298.66 388.844H1302.16ZM1336.34 365.688V381.531H1333.38V365.688H1336.34ZM1336.34 383.031V393.312H1317.94V383.031H1336.34ZM1320.88 385.406V390.906H1333.44V385.406H1320.88ZM1323.31 369.469C1323.28 373.25 1326 376.656 1330.25 378.094L1328.78 380.375C1325.53 379.297 1323.09 377.078 1321.81 374.188C1320.56 377.266 1318.08 379.719 1314.72 380.906L1313.25 378.562C1317.62 377.094 1320.28 373.375 1320.28 369.469V366.75H1323.31V369.469ZM1366.31 379.719V382.156H1340.78V379.719H1366.31ZM1355 365.625V368.312H1363.75V370.688H1355.19C1355.5 373.391 1359.38 375.422 1364.94 375.875L1364.03 378.156C1359.19 377.703 1355.27 376.078 1353.53 373.469C1351.78 376.078 1347.86 377.703 1343.06 378.156L1342.12 375.875C1347.66 375.422 1351.53 373.391 1351.88 370.688H1343.34V368.312H1352.06V365.625H1355ZM1353.53 384.25C1359.62 384.25 1363.19 385.906 1363.19 388.938C1363.19 391.969 1359.62 393.625 1353.53 393.594C1347.41 393.625 1343.81 391.969 1343.81 388.938C1343.81 385.906 1347.41 384.25 1353.53 384.25ZM1353.53 386.469C1349.22 386.469 1346.81 387.344 1346.81 388.938C1346.81 390.531 1349.22 391.375 1353.53 391.344C1357.78 391.375 1360.22 390.531 1360.22 388.938C1360.22 387.344 1357.78 386.469 1353.53 386.469ZM1390.53 368.031V370.406H1396.62V365.688H1399.59V386.094H1396.62V378.844H1390.53V381.281H1377.53V368.031H1390.53ZM1380.47 370.438V378.938H1387.62V370.438H1380.47ZM1400.22 390.656V393.062H1381.31V384.219H1384.31V390.656H1400.22ZM1390.53 376.406H1396.62V372.844H1390.53V376.406ZM1427.22 365.656V380.906H1424.28V374.719H1419.03V372.281H1424.28V365.656H1427.22ZM1411.94 382.156V385.375H1424.28V382.156H1427.22V393.312H1409V382.156H1411.94ZM1411.94 390.906H1424.28V387.688H1411.94V390.906ZM1413.94 370.031C1413.94 373.5 1416.47 377 1420.69 378.438L1419.16 380.75C1416 379.641 1413.69 377.406 1412.47 374.625C1411.23 377.734 1408.8 380.203 1405.47 381.375L1403.94 379.031C1408.25 377.531 1410.91 373.844 1410.91 370V369.625H1404.84V367.219H1419.94V369.625H1413.94V370.031Z" fill="#343434"/>
<path d="M1253.58 422L1253.56 420.711L1258.38 415.633C1260.06 413.855 1260.86 412.898 1260.86 411.59C1260.86 410.145 1259.63 409.188 1258.05 409.188C1256.37 409.188 1255.29 410.262 1255.29 411.844H1253.63C1253.62 409.344 1255.55 407.664 1258.11 407.664C1260.67 407.664 1262.5 409.383 1262.5 411.59C1262.5 413.172 1261.76 414.402 1259.26 416.98L1256.02 420.32V420.438H1262.76V422H1253.58ZM1264.65 419.109V417.664L1271.02 407.859H1273.19V417.566H1275.16V419.109H1273.19V422H1271.51V419.109H1264.65ZM1266.54 417.566H1271.51V410.086H1271.33L1266.54 417.449V417.566ZM1278.05 422.117C1277.37 422.117 1276.78 421.551 1276.8 420.848C1276.78 420.164 1277.37 419.598 1278.05 419.598C1278.73 419.598 1279.3 420.164 1279.3 420.848C1279.3 421.551 1278.73 422.117 1278.05 422.117ZM1285.22 407.859V422H1283.44V409.695H1283.36L1279.92 411.98V410.203L1283.44 407.859H1285.22ZM1293.62 422.195C1290.47 422.195 1288.67 419.559 1288.67 414.93C1288.67 410.34 1290.51 407.664 1293.62 407.664C1296.72 407.664 1298.56 410.34 1298.56 414.93C1298.56 419.559 1296.74 422.195 1293.62 422.195ZM1293.62 420.633C1295.65 420.633 1296.84 418.582 1296.84 414.93C1296.84 411.277 1295.65 409.188 1293.62 409.188C1291.58 409.188 1290.37 411.277 1290.37 414.93C1290.37 418.582 1291.56 420.633 1293.62 420.633ZM1301.6 422.117C1300.92 422.117 1300.33 421.551 1300.35 420.848C1300.33 420.164 1300.92 419.598 1301.6 419.598C1302.29 419.598 1302.85 420.164 1302.85 420.848C1302.85 421.551 1302.29 422.117 1301.6 422.117ZM1305.47 422L1305.45 420.711L1310.28 415.633C1311.96 413.855 1312.76 412.898 1312.76 411.59C1312.76 410.145 1311.53 409.188 1309.94 409.188C1308.26 409.188 1307.19 410.262 1307.19 411.844H1305.53C1305.51 409.344 1307.44 407.664 1310 407.664C1312.56 407.664 1314.4 409.383 1314.4 411.59C1314.4 413.172 1313.65 414.402 1311.15 416.98L1307.91 420.32V420.438H1314.65V422H1305.47ZM1321.82 422.195C1319.26 422.195 1317.33 420.613 1317.23 418.445H1318.93C1319.06 419.715 1320.29 420.652 1321.82 420.652C1323.65 420.652 1324.98 419.305 1324.98 417.527C1324.98 415.691 1323.6 414.344 1321.7 414.324C1320.51 414.305 1319.59 414.676 1319.06 415.594H1317.37L1318.36 407.859H1326.02V409.422H1319.83L1319.3 413.562H1319.44C1320.06 413.074 1321.02 412.742 1322.01 412.742C1324.71 412.742 1326.7 414.734 1326.7 417.488C1326.7 420.223 1324.63 422.195 1321.82 422.195ZM1334.61 416.609C1334.63 412.918 1335.63 409.852 1337.42 407.254H1338.91C1337.58 409.188 1336.35 413.133 1336.35 416.609C1336.35 420.086 1337.58 424.051 1338.91 425.984H1337.42C1335.63 423.367 1334.63 420.301 1334.61 416.609ZM1354.16 407.156V408.445C1354.16 409.793 1354.16 411.375 1353.71 413.543H1356.25V414.812H1340.35V413.543H1352.17C1352.64 411.365 1352.64 409.793 1352.64 408.445V408.426H1342.37V407.156H1354.16ZM1354.24 417.215V423.348H1342.31V417.215H1354.24ZM1343.83 418.426V422.098H1352.72V418.426H1343.83ZM1361.97 416.609C1361.96 420.301 1360.96 423.367 1359.16 425.984H1357.68C1359.01 424.051 1360.24 420.086 1360.24 416.609C1360.24 413.133 1359.01 409.188 1357.68 407.254H1359.16C1360.96 409.852 1361.96 412.918 1361.97 416.609Z" fill="#737373"/>
<g filter="url(#filter5_d_300_4225)">
<rect x="854" y="20" width="320" height="213" rx="16" fill="#FBFBFB"/>
</g>
<path d="M996 96H1032M1012 86H1016M1006 76C1009.68 70.81 1018.24 70.526 1022 76M1000.82 88.236C1000.1 85.204 999.742 83.688 1000.21 82.52C1000.5 81.794 1001 81.168 1001.65 80.72C1002.69 80 1004.26 80 1007.4 80H1020.6C1023.74 80 1025.31 80 1026.35 80.72C1027 81.168 1027.5 81.794 1027.79 82.52C1028.26 83.688 1027.9 85.204 1027.18 88.236C1026.48 91.224 1026.12 92.716 1025.24 93.79C1024.69 94.4671 1023.99 95.0146 1023.2 95.394C1021.95 96 1020.4 96 1017.3 96H1010.7C1007.6 96 1006.06 96 1004.8 95.394C1004.01 95.0146 1003.31 94.4671 1002.76 93.79C1001.88 92.716 1001.52 91.224 1000.82 88.236ZM1018 64C1018 65.0609 1017.58 66.0783 1016.83 66.8284C1016.08 67.5786 1015.06 68 1014 68C1012.94 68 1011.92 67.5786 1011.17 66.8284C1010.42 66.0783 1010 65.0609 1010 64C1010 62.9391 1010.42 61.9217 1011.17 61.1716C1011.92 60.4214 1012.94 60 1014 60C1015.06 60 1016.08 60.4214 1016.83 61.1716C1017.58 61.9217 1018 62.9391 1018 64Z" stroke="#FF7E36" stroke-width="2.5" stroke-linecap="round" stroke-linejoin="round"/>
<path d="M926.641 115.375V138H923.172V118.812H923.047L917.641 122.344V119.062L923.266 115.375H926.641ZM941.016 121.656C941.016 125.969 943.641 130.531 947.828 132.531L946.141 134.781C943.094 133.344 940.797 130.422 939.609 127C938.375 130.703 935.938 133.797 932.734 135.281L931.078 133C935.328 131.062 938.109 126.281 938.109 121.656V119.812H931.922V117.438H938.078V113.219H941.078V117.438H947.172V119.812H941.016V121.656ZM953.234 112.656V123.938H957.734V126.438H953.234V140.656H950.266V112.656H953.234ZM988.891 112.656V119.688H992.953V122.188H988.891V128.969H985.922V112.656H988.891ZM973.922 130.125V132.844H985.922V130.125H988.891V140.312H970.984V130.125H973.922ZM973.922 137.938H985.922V135.156H973.922V137.938ZM983.609 115.406V117.781H966.922V115.406H973.797V112.406H976.766V115.406H983.609ZM975.266 118.938C979.297 118.938 982.047 120.844 982.047 123.844C982.047 126.812 979.297 128.781 975.266 128.75C971.172 128.781 968.453 126.812 968.453 123.844C968.453 120.844 971.172 118.938 975.266 118.938ZM975.266 121.156C972.891 121.125 971.297 122.219 971.328 123.844C971.297 125.5 972.891 126.562 975.266 126.562C977.641 126.562 979.234 125.5 979.266 123.844C979.234 122.219 977.641 121.125 975.266 121.156ZM1009.39 114.5C1009.39 115.562 1009.28 116.562 1009.08 117.531H1014.92V112.688H1017.89V129.344H1014.92V125.844H1007.86V123.438H1014.92V119.906H1008.33C1006.44 124.297 1002.14 127.438 996.078 129.062L994.953 126.719C1001.61 124.922 1005.66 121.359 1006.2 116.906H996.422V114.5H1009.39ZM1017.89 130.562V140.594H1014.92V132.906H998.922V130.562H1017.89ZM1031.95 120.906C1031.95 125.344 1034.86 130.281 1039.11 132.281L1037.42 134.594C1034.28 133.078 1031.8 129.922 1030.55 126.25C1029.25 130.266 1026.62 133.719 1023.42 135.312L1021.67 132.969C1025.92 130.938 1029.02 125.656 1029.02 120.906V117.938H1022.7V115.469H1038.05V117.938H1031.95V120.906ZM1044.02 112.656V123.75H1048.52V126.25H1044.02V140.656H1041.05V112.656H1044.02ZM1061.67 113.844V117.656H1069.02V113.844H1071.95V126.062H1058.77V113.844H1061.67ZM1061.67 123.688H1069.02V119.938H1061.67V123.688ZM1079.67 112.656V118.531H1083.73V120.938H1079.67V127.062H1076.7V112.656H1079.67ZM1079.67 128.281V135.344H1064.55V138H1080.64V140.375H1061.64V133.156H1076.73V130.625H1061.58V128.281H1079.67ZM1110.95 134.906V137.344H1085.33V134.906H1092.2V128.688H1087.58V126.281H1091.77V117.562H1087.52V115.125H1108.61V117.562H1104.33V126.281H1108.52V128.688H1103.92V134.906H1110.95ZM1094.7 126.281H1101.42V117.562H1094.7V126.281ZM1095.17 134.906H1100.95V128.688H1095.17V134.906Z" fill="#343434"/>
<path d="M961.158 169L961.139 167.711L965.963 162.633C967.643 160.855 968.443 159.898 968.443 158.59C968.443 157.145 967.213 156.188 965.631 156.188C963.951 156.188 962.877 157.262 962.877 158.844H961.217C961.197 156.344 963.131 154.664 965.689 154.664C968.248 154.664 970.084 156.383 970.084 158.59C970.084 160.172 969.342 161.402 966.842 163.98L963.6 167.32V167.438H970.338V169H961.158ZM972.232 166.109V164.664L978.6 154.859H980.768V164.566H982.74V166.109H980.768V169H979.088V166.109H972.232ZM974.127 164.566H979.088V157.086H978.912L974.127 164.449V164.566ZM985.631 169.117C984.947 169.117 984.361 168.551 984.381 167.848C984.361 167.164 984.947 166.598 985.631 166.598C986.314 166.598 986.881 167.164 986.881 167.848C986.881 168.551 986.314 169.117 985.631 169.117ZM992.799 154.859V169H991.021V156.695H990.943L987.506 158.98V157.203L991.021 154.859H992.799ZM1001.2 169.195C998.053 169.195 996.256 166.559 996.256 161.93C996.256 157.34 998.092 154.664 1001.2 154.664C1004.3 154.664 1006.14 157.34 1006.14 161.93C1006.14 166.559 1004.32 169.195 1001.2 169.195ZM1001.2 167.633C1003.23 167.633 1004.42 165.582 1004.42 161.93C1004.42 158.277 1003.23 156.188 1001.2 156.188C999.166 156.188 997.955 158.277 997.955 161.93C997.955 165.582 999.146 167.633 1001.2 167.633ZM1009.19 169.117C1008.5 169.117 1007.92 168.551 1007.94 167.848C1007.92 167.164 1008.5 166.598 1009.19 166.598C1009.87 166.598 1010.44 167.164 1010.44 167.848C1010.44 168.551 1009.87 169.117 1009.19 169.117ZM1013.05 169L1013.03 167.711L1017.86 162.633C1019.54 160.855 1020.34 159.898 1020.34 158.59C1020.34 157.145 1019.11 156.188 1017.53 156.188C1015.85 156.188 1014.77 157.262 1014.77 158.844H1013.11C1013.09 156.344 1015.03 154.664 1017.58 154.664C1020.14 154.664 1021.98 156.383 1021.98 158.59C1021.98 160.172 1021.24 161.402 1018.74 163.98L1015.49 167.32V167.438H1022.23V169H1013.05ZM1029.79 154.859V169H1028.01V156.695H1027.94L1024.5 158.98V157.203L1028.01 154.859H1029.79ZM1039.03 163.609C1039.05 159.918 1040.04 156.852 1041.84 154.254H1043.33C1042 156.188 1040.77 160.133 1040.77 163.609C1040.77 167.086 1042 171.051 1043.33 172.984H1041.84C1040.04 170.367 1039.05 167.301 1039.03 163.609ZM1059.09 153.238V163.473H1057.54V162.516H1054.03V161.5H1057.54V153.238H1059.09ZM1044.71 159.781C1048.07 159.801 1052.37 159.762 1056.12 159.352L1056.22 160.348C1054.52 160.592 1052.75 160.738 1051.02 160.816V163.531H1049.52V160.875C1047.88 160.934 1046.3 160.943 1044.89 160.934L1044.71 159.781ZM1059.09 164.098V167.691H1048.95V169.254H1059.65V170.387H1047.45V166.617H1057.56V165.211H1047.37V164.098H1059.09ZM1050.38 153.57C1052.96 153.57 1054.67 154.586 1054.69 156.188C1054.67 157.809 1052.96 158.785 1050.38 158.785C1047.76 158.785 1046.06 157.809 1046.06 156.188C1046.06 154.586 1047.76 153.57 1050.38 153.57ZM1050.38 154.645C1048.62 154.645 1047.49 155.25 1047.51 156.188C1047.49 157.105 1048.62 157.73 1050.38 157.73C1052.12 157.73 1053.25 157.105 1053.25 156.188C1053.25 155.25 1052.12 154.645 1050.38 154.645ZM1066.39 163.609C1066.37 167.301 1065.38 170.367 1063.58 172.984H1062.1C1063.42 171.051 1064.65 167.086 1064.65 163.609C1064.65 160.133 1063.42 156.188 1062.1 154.254H1063.58C1065.38 156.852 1066.37 159.918 1066.39 163.609ZM995.523 178.859V193H993.746V180.695H993.668L990.23 182.98V181.203L993.746 178.859H995.523ZM1003.9 193.195C1001.34 193.195 999.41 191.613 999.312 189.445H1001.01C1001.15 190.715 1002.38 191.652 1003.9 191.652C1005.74 191.652 1007.07 190.305 1007.07 188.527C1007.07 186.691 1005.68 185.344 1003.79 185.324C1002.59 185.305 1001.68 185.676 1001.15 186.594H999.449L1000.45 178.859H1008.1V180.422H1001.91L1001.38 184.562H1001.52C1002.14 184.074 1003.1 183.742 1004.1 183.742C1006.79 183.742 1008.79 185.734 1008.79 188.488C1008.79 191.223 1006.71 193.195 1003.9 193.195ZM1012.44 191.125C1011.75 191.125 1011.17 190.559 1011.19 189.855C1011.17 189.172 1011.75 188.605 1012.44 188.605C1013.12 188.605 1013.69 189.172 1013.69 189.855C1013.69 190.559 1013.12 191.125 1012.44 191.125ZM1012.44 183.273C1011.75 183.273 1011.17 182.707 1011.19 182.004C1011.17 181.32 1011.75 180.754 1012.44 180.754C1013.12 180.754 1013.69 181.32 1013.69 182.004C1013.69 182.707 1013.12 183.273 1012.44 183.273ZM1020.93 193.195C1017.79 193.195 1015.99 190.559 1015.99 185.93C1015.99 181.34 1017.83 178.664 1020.93 178.664C1024.04 178.664 1025.88 181.34 1025.88 185.93C1025.88 190.559 1024.06 193.195 1020.93 193.195ZM1020.93 191.633C1022.96 191.633 1024.16 189.582 1024.16 185.93C1024.16 182.277 1022.96 180.188 1020.93 180.188C1018.9 180.188 1017.69 182.277 1017.69 185.93C1017.69 189.582 1018.88 191.633 1020.93 191.633ZM1032.85 193.195C1029.7 193.195 1027.91 190.559 1027.91 185.93C1027.91 181.34 1029.74 178.664 1032.85 178.664C1035.95 178.664 1037.79 181.34 1037.79 185.93C1037.79 190.559 1035.97 193.195 1032.85 193.195ZM1032.85 191.633C1034.88 191.633 1036.07 189.582 1036.07 185.93C1036.07 182.277 1034.88 180.188 1032.85 180.188C1030.82 180.188 1029.61 182.277 1029.61 185.93C1029.61 189.582 1030.8 191.633 1032.85 191.633Z" fill="#737373"/>
<defs>
<filter id="filter0_d_300_4225" x="220" y="0" width="360" height="253" filterUnits="userSpaceOnUse" color-interpolation-filters="sRGB">
<feFlood flood-opacity="0" result="BackgroundImageFix"/>
<feColorMatrix in="SourceAlpha" type="matrix" values="0 0 0 0 0 0 0 0 0 0 0 0 0 0 0 0 0 0 127 0" result="hardAlpha"/>
<feOffset/>
<feGaussianBlur stdDeviation="10"/>
<feComposite in2="hardAlpha" operator="out"/>
<feColorMatrix type="matrix" values="0 0 0 0 0 0 0 0 0 0 0 0 0 0 0 0 0 0 0.05 0"/>
<feBlend mode="normal" in2="BackgroundImageFix" result="effect1_dropShadow_300_4225"/>
<feBlend mode="normal" in="SourceGraphic" in2="effect1_dropShadow_300_4225" result="shape"/>
</filter>
<filter id="filter1_d_300_4225" x="754" y="480" width="359.5" height="253" filterUnits="userSpaceOnUse" color-interpolation-filters="sRGB">
<feFlood flood-opacity="0" result="BackgroundImageFix"/>
<feColorMatrix in="SourceAlpha" type="matrix" values="0 0 0 0 0 0 0 0 0 0 0 0 0 0 0 0 0 0 127 0" result="hardAlpha"/>
<feOffset/>
<feGaussianBlur stdDeviation="10"/>
<feComposite in2="hardAlpha" operator="out"/>
<feColorMatrix type="matrix" values="0 0 0 0 0 0 0 0 0 0 0 0 0 0 0 0 0 0 0.05 0"/>
<feBlend mode="normal" in2="BackgroundImageFix" result="effect1_dropShadow_300_4225"/>
<feBlend mode="normal" in="SourceGraphic" in2="effect1_dropShadow_300_4225" result="shape"/>
</filter>
<filter id="filter2_d_300_4225" x="1340" y="480" width="359.5" height="253" filterUnits="userSpaceOnUse" color-interpolation-filters="sRGB">
<feFlood flood-opacity="0" result="BackgroundImageFix"/>
<feColorMatrix in="SourceAlpha" type="matrix" values="0 0 0 0 0 0 0 0 0 0 0 0 0 0 0 0 0 0 127 0" result="hardAlpha"/>
<feOffset/>
<feGaussianBlur stdDeviation="10"/>
<feComposite in2="hardAlpha" operator="out"/>
<feColorMatrix type="matrix" values="0 0 0 0 0 0 0 0 0 0 0 0 0 0 0 0 0 0 0.05 0"/>
<feBlend mode="normal" in2="BackgroundImageFix" result="effect1_dropShadow_300_4225"/>
<feBlend mode="normal" in="SourceGraphic" in2="effect1_dropShadow_300_4225" result="shape"/>
</filter>
<filter id="filter3_d_300_4225" x="540" y="241" width="359.5" height="253" filterUnits="userSpaceOnUse" color-interpolation-filters="sRGB">
<feFlood flood-opacity="0" result="BackgroundImageFix"/>
<feColorMatrix in="SourceAlpha" type="matrix" values="0 0 0 0 0 0 0 0 0 0 0 0 0 0 0 0 0 0 127 0" result="hardAlpha"/>
<feOffset/>
<feGaussianBlur stdDeviation="10"/>
<feComposite in2="hardAlpha" operator="out"/>
<feColorMatrix type="matrix" values="0 0 0 0 0 0 0 0 0 0 0 0 0 0 0 0 0 0 0.05 0"/>
<feBlend mode="normal" in2="BackgroundImageFix" result="effect1_dropShadow_300_4225"/>
<feBlend mode="normal" in="SourceGraphic" in2="effect1_dropShadow_300_4225" result="shape"/>
</filter>
<filter id="filter4_d_300_4225" x="1128" y="241" width="360" height="253" filterUnits="userSpaceOnUse" color-interpolation-filters="sRGB">
<feFlood flood-opacity="0" result="BackgroundImageFix"/>
<feColorMatrix in="SourceAlpha" type="matrix" values="0 0 0 0 0 0 0 0 0 0 0 0 0 0 0 0 0 0 127 0" result="hardAlpha"/>
<feOffset/>
<feGaussianBlur stdDeviation="10"/>
<feComposite in2="hardAlpha" operator="out"/>
<feColorMatrix type="matrix" values="0 0 0 0 0 0 0 0 0 0 0 0 0 0 0 0 0 0 0.05 0"/>
<feBlend mode="normal" in2="BackgroundImageFix" result="effect1_dropShadow_300_4225"/>
<feBlend mode="normal" in="SourceGraphic" in2="effect1_dropShadow_300_4225" result="shape"/>
</filter>
<filter id="filter5_d_300_4225" x="834" y="0" width="360" height="253" filterUnits="userSpaceOnUse" color-interpolation-filters="sRGB">
<feFlood flood-opacity="0" result="BackgroundImageFix"/>
<feColorMatrix in="SourceAlpha" type="matrix" values="0 0 0 0 0 0 0 0 0 0 0 0 0 0 0 0 0 0 127 0" result="hardAlpha"/>
<feOffset/>
<feGaussianBlur stdDeviation="10"/>
<feComposite in2="hardAlpha" operator="out"/>
<feColorMatrix type="matrix" values="0 0 0 0 0 0 0 0 0 0 0 0 0 0 0 0 0 0 0.05 0"/>
<feBlend mode="normal" in2="BackgroundImageFix" result="effect1_dropShadow_300_4225"/>
<feBlend mode="normal" in="SourceGraphic" in2="effect1_dropShadow_300_4225" result="shape"/>
</filter>
</defs>
</svg>
