<svg width="40" height="40" viewBox="0 0 40 40" fill="none" xmlns="http://www.w3.org/2000/svg">
<path d="M20.0067 1.13368e-06C16.5369 -0.001167 13.1265 0.900415 10.1105 2.61616C7.09455 4.3319 4.57686 6.80278 2.80482 9.786C1.03278 12.7692 0.0673488 16.1621 0.0033979 19.6314C-0.060553 23.1006 0.779173 26.5268 2.44007 29.5733L0.0734004 37.8733C-0.00987539 38.1648 -0.012094 38.4734 0.0669837 38.766C0.146061 39.0586 0.303441 39.3242 0.522184 39.534C0.740928 39.7438 1.01275 39.89 1.3084 39.9569C1.60405 40.0237 1.91233 40.0087 2.20007 39.9133L9.9934 37.3167C12.6496 38.8516 15.6233 39.7549 18.6844 39.9567C21.7456 40.1585 24.8121 39.6534 27.6468 38.4804C30.4816 37.3075 33.0084 35.4982 35.032 33.1924C37.0556 30.8867 38.5216 28.1463 39.3167 25.1833C40.1118 22.2203 40.2146 19.1142 39.6171 16.1051C39.0197 13.0961 37.738 10.2648 35.8713 7.83027C34.0046 5.39578 31.6029 3.42335 28.8519 2.06556C26.101 0.70777 23.0745 0.0010265 20.0067 1.13368e-06Z" fill="url(#paint0_linear_458_2756)"/>
<path d="M13.34 16.6667C13.34 16.2246 13.5156 15.8007 13.8282 15.4882C14.1407 15.1756 14.5647 15 15.0067 15H25.0067C25.4487 15 25.8726 15.1756 26.1852 15.4882C26.4978 15.8007 26.6734 16.2246 26.6734 16.6667C26.6734 17.1087 26.4978 17.5326 26.1852 17.8452C25.8726 18.1577 25.4487 18.3333 25.0067 18.3333H15.0067C14.5647 18.3333 14.1407 18.1577 13.8282 17.8452C13.5156 17.5326 13.34 17.1087 13.34 16.6667ZM15.0067 21.6667H21.6734C22.1154 21.6667 22.5393 21.8423 22.8519 22.1548C23.1644 22.4674 23.34 22.8913 23.34 23.3333C23.34 23.7754 23.1644 24.1993 22.8519 24.5118C22.5393 24.8244 22.1154 25 21.6734 25H15.0067C14.5647 25 14.1407 24.8244 13.8282 24.5118C13.5156 24.1993 13.34 23.7754 13.34 23.3333C13.34 22.8913 13.5156 22.4674 13.8282 22.1548C14.1407 21.8423 14.5647 21.6667 15.0067 21.6667Z" fill="url(#paint1_linear_458_2756)"/>
<defs>
<linearGradient id="paint0_linear_458_2756" x1="1.43673" y1="7.5" x2="36.3567" y2="67.0367" gradientUnits="userSpaceOnUse">
<stop stop-color="#FFA30F"/>
<stop offset="1" stop-color="#D1CE23"/>
</linearGradient>
<linearGradient id="paint1_linear_458_2756" x1="14.5067" y1="15.1767" x2="15.7667" y2="26.0033" gradientUnits="userSpaceOnUse">
<stop stop-color="#FDFDFD"/>
<stop offset="1" stop-color="#CCEAFF"/>
</linearGradient>
</defs>
</svg>
