<svg width="40" height="29" viewBox="0 0 40 29" fill="none" xmlns="http://www.w3.org/2000/svg">
<path d="M18.2143 14.2857L34.9629 2.75428C37.0957 1.2857 40 2.81142 40 5.39999V23.1686C40 25.7571 37.0957 27.2843 34.9629 25.8157L18.2143 14.2857Z" fill="url(#paint0_radial_458_2761)"/>
<path d="M18.2143 14.2857L34.9629 2.75428C37.0957 1.2857 40 2.81142 40 5.39999V23.1686C40 25.7571 37.0957 27.2843 34.9629 25.8157L18.2143 14.2857Z" fill="url(#paint1_linear_458_2761)" fill-opacity="0.75"/>
<path d="M0 6.42857C0 4.72361 0.677294 3.08848 1.88288 1.88288C3.08848 0.677294 4.72361 0 6.42857 0H20.7143C22.4192 0 24.0544 0.677294 25.26 1.88288C26.4656 3.08848 27.1429 4.72361 27.1429 6.42857V22.1429C27.1429 23.8478 26.4656 25.483 25.26 26.6885C24.0544 27.8941 22.4192 28.5714 20.7143 28.5714H6.42857C4.72361 28.5714 3.08848 27.8941 1.88288 26.6885C0.677294 25.483 0 23.8478 0 22.1429V6.42857Z" fill="url(#paint2_radial_458_2761)"/>
<path opacity="0.5" d="M2.85715 20.7143C2.85715 19.3882 3.38393 18.1164 4.32161 17.1787C5.2593 16.2411 6.53106 15.7143 7.85715 15.7143H19.2857C20.6118 15.7143 21.8836 16.2411 22.8213 17.1787C23.7589 18.1164 24.2857 19.3882 24.2857 20.7143C24.2857 22.0404 23.7589 23.3121 22.8213 24.2498C21.8836 25.1875 20.6118 25.7143 19.2857 25.7143H7.85715C6.53106 25.7143 5.2593 25.1875 4.32161 24.2498C3.38393 23.3121 2.85715 22.0404 2.85715 20.7143Z" fill="url(#paint3_linear_458_2761)"/>
<path fill-rule="evenodd" clip-rule="evenodd" d="M7.85715 18.5714C7.28883 18.5714 6.74379 18.7972 6.34192 19.1991C5.94006 19.6009 5.71429 20.146 5.71429 20.7143C5.71429 21.2826 5.94006 21.8276 6.34192 22.2295C6.74379 22.6314 7.28883 22.8571 7.85715 22.8571H13.5714C14.1398 22.8571 14.6848 22.6314 15.0867 22.2295C15.4885 21.8276 15.7143 21.2826 15.7143 20.7143C15.7143 20.146 15.4885 19.6009 15.0867 19.1991C14.6848 18.7972 14.1398 18.5714 13.5714 18.5714H7.85715ZM19.2857 18.5714C18.7174 18.5714 18.1724 18.7972 17.7705 19.1991C17.3686 19.6009 17.1429 20.146 17.1429 20.7143C17.1429 21.2826 17.3686 21.8276 17.7705 22.2295C18.1724 22.6314 18.7174 22.8571 19.2857 22.8571C19.854 22.8571 20.3991 22.6314 20.801 22.2295C21.2028 21.8276 21.4286 21.2826 21.4286 20.7143C21.4286 20.146 21.2028 19.6009 20.801 19.1991C20.3991 18.7972 19.854 18.5714 19.2857 18.5714Z" fill="#E3CC35"/>
<defs>
<radialGradient id="paint0_radial_458_2761" cx="0" cy="0" r="1" gradientUnits="userSpaceOnUse" gradientTransform="translate(29.57 -1.09429) rotate(71.7403) scale(33.2894 66.0276)">
<stop offset="0.081" stop-color="#D1CE23"/>
<stop offset="0.354" stop-color="#FFDB3C"/>
<stop offset="1" stop-color="#FFA30F"/>
</radialGradient>
<linearGradient id="paint1_linear_458_2761" x1="23.4272" y1="14.2857" x2="39.9786" y2="13.6914" gradientUnits="userSpaceOnUse">
<stop stop-color="#FFA30F"/>
<stop offset="1" stop-color="#FFA30F" stop-opacity="0"/>
</linearGradient>
<radialGradient id="paint2_radial_458_2761" cx="0" cy="0" r="1" gradientUnits="userSpaceOnUse" gradientTransform="translate(-4.93429 1.19) rotate(44.0766) scale(43.4696 91.2906)">
<stop offset="0.0439996" stop-color="#F2F05F"/>
<stop offset="0.504" stop-color="#FFC66B"/>
<stop offset="0.844" stop-color="#FFA30F"/>
</radialGradient>
<linearGradient id="paint3_linear_458_2761" x1="2.37" y1="15.7143" x2="5.91429" y2="28.9914" gradientUnits="userSpaceOnUse">
<stop stop-color="#FFA30F"/>
<stop offset="1" stop-color="#D68A10"/>
</linearGradient>
</defs>
</svg>
